All of Torchwood seasons 1, 2 and 3 and all relevant Doctor Who episodes including those related to but before Torchwood spun-off on its own. Does not include Face of Boe episodes from Doctor Who, as that may seem unrelated to many folks.



EXAMPLE ENCODE DETAILS


General
Complete name                    : Torchwood.S01E01.Everything.Changes.PDTV.272p.H264.AAC-k3n.m4v
Format                           : MPEG-4
Format profile                   : Base Media / Version 2
Codec ID                         : mp42
File size                        : 105 MiB
Duration                         : 50mn 45s
Overall bit rate                 : 290 Kbps

Video
ID                               : 1
Format                           : AVC
Format/Info                      : Advanced Video Codec
Format profile                   : Baseline@L2.1
Format settings, CABAC           : No
Format settings, ReFrames        : 2 frames
Format settings, GOP             : M=1, N=23
Codec ID                         : avc1
Codec ID/Info                    : Advanced Video Coding
Duration                         : 50mn 44s
Bit rate mode                    : Variable
Bit rate                         : 240 Kbps
Width                            : 480 pixels
Height                           : 272 pixels
Display aspect ratio             : 16:9
Frame rate mode                  : Constant
Frame rate                       : 25.000 fps
Color space                      : YUV
Chroma subsampling               : 4:2:0
Bit depth                        : 8 bits
Scan type                        : Progressive
Bits/(Pixel*Frame)               : 0.074
Stream size                      : 87.1 MiB (83%)
Writing library                  : x264 core 79

Audio
ID                               : 2
Format                           : AAC
Format/Info                      : Advanced Audio Codec
Format profile                   : LC
Codec ID                         : 40
Duration                         : 50mn 45s
Bit rate mode                    : Variable
Bit rate                         : 48.0 Kbps
Maximum bit rate                 : 65.3 Kbps
Channel(s)                       : 2 channels
Channel positions                : Front: L R
Sampling rate                    : 24.0 KHz
Compression mode                 : Lossy
Stream size                      : 17.4 MiB (17%)
